<svg xmlns="http://www.w3.org/2000/svg" width="512" height="512" viewBox="0 0 135.47 135.47"><path fill="#afccf9" d="m67.733 67.733 29.33 16.933-29.33 50.8c37.408 0 67.733-30.325 67.733-67.733a67.4 67.4 0 0 0-9.084-33.867h-58.65z"/><path fill="#1767d1" d="M67.733 0C42.663 0 20.791 13.63 9.079 33.875l29.324 50.792 29.33-16.933V33.867h58.65C114.669 13.627 92.8 0 67.733 0"/><path fill="#679ef5" d="M0 67.733c0 37.408 30.324 67.733 67.733 67.733l29.33-50.8-29.33-16.933-29.33 16.933L9.079 33.874a67.4 67.4 0 0 0-9.08 33.858"/><path fill="#fff" d="M101.6 67.733c0 18.704-15.163 33.867-33.867 33.867S33.866 86.437 33.866 67.733s15.163-33.867 33.867-33.867S101.6 49.029 101.6 67.733"/><path fill="#1a74e7" d="M95.25 67.733c0 15.197-12.32 27.517-27.517 27.517S40.216 82.93 40.216 67.733s12.32-27.517 27.517-27.517S95.25 52.536 95.25 67.733"/></svg>