<svg xmlns="http://www.w3.org/2000/svg" viewBox="0 0 197.46 161.16"><path d="M196.57 264.79s43.188-18.237 66.643-33.143c3.719-2.363 10.357-8.214 10.357-8.214 11.778-9.341 11.744-28.431 22.143-39.286 3.588-3.745 2.772-5.899 2.772-5.899l-2.058-3.53c-.835-1.432-3.446-.225-4.643-1.786s-1.214-4.567-.714-6.785c.553-2.45 11.915-6.827 13.929-8.429s3.931-1.977 5.5-2.5 3.243 1.216 4.286 2.5c1.187 1.461 1.785 5.357 1.785 5.357l3.07 6.303 10.002-3.446c3.577-1.232 7.33 1.93 11.07 2.5 7.805-.414 20.068.061 11.072 9.643-1.061 1.64-3.667 1.881-4.643 3.572-.901 1.56-.715 5.357-.715 5.357-.261 1.964 3.396 2.052 5 3.214 1.988 1.44 5.715 4.643 5.715 4.643s1.337 3.899.714 5.714c-.71 2.07-4.643 4.643-4.643 4.643s-1.172.842-1.071 1.429c.072.423 1.071.714 1.071.714 1.225.817 3.082.223 4.286 1.071 1.053.742 2.143 3.215 2.143 3.215s.38 2.212 0 3.214c-.51 1.34-2.857 3.214-2.857 3.214-.78.877-1.643 2.062-1.429 3.215.184.993 2.143 2.142 2.143 2.142 2.635 2.635 4.003 4.005 2.143 7.5-1.037 2.853-3.867 4.7-6.072 6.786l39.46 77.561c-14.62-5.09-30.98-14.22-39.17-26.85-7.86-12.11-19.96-35.68-19.96-35.68l-9.615 4.257c-5.966 2.642-12.203 1.094-18.214 3.929l-101.5 47.857-8-44z" style="stroke:#000;stroke-width:1px;fill:#000" transform="translate(-196.07 -154.62)"/></svg>