<svg xmlns="http://www.w3.org/2000/svg" viewBox="0 0 58 58"><path fill="#fa1e4e" d="M46.336 48.414c-3.066 2.023-6.57 3.095-10.145 3.095-5.851 0-11.399-2.863-15.221-7.854l-.04-.05c-2.932-3.48-4.682-8.59-4.803-13.993v-1.267c.12-5.434 1.871-10.545 4.842-14.074 3.823-4.991 9.371-7.854 15.222-7.854 3.575 0 7.08 1.072 10.148 3.097a26.3 26.3 0 0 1 8.613 19.45 26.28 26.28 0 0 1-8.615 19.45M27.67 55.118c-13.906-.656-24.8-12.144-24.8-26.154 0-14.438 11.682-26.185 26.067-26.185h.073c2.277.01 4.523.317 6.685.903-6.518.156-12.648 3.386-16.845 8.867-3.327 3.95-5.313 9.685-5.448 15.765v1.33c.135 6.036 2.113 11.76 5.428 15.71 4.235 5.516 10.358 8.736 16.867 8.892-2.588.702-5.334 1-8.028.872M48.084 7.4A28.66 28.66 0 0 0 28.911.036C13.048.036.14 13.013.14 28.963c0 15.477 12.036 28.169 27.402 28.893q.68.031 1.368.032a28.62 28.62 0 0 0 19.165-7.357l.006-.004a29.04 29.04 0 0 0 9.597-21.565A29.04 29.04 0 0 0 48.084 7.4"/><path fill="#fa1e4e" d="M34.182 10.741c5.132 3.314 8.666 10.243 8.666 18.259s-3.534 14.946-8.666 18.259c6.551-.546 11.75-8.511 11.75-18.259s-5.199-17.713-11.75-18.259"/></svg>