<svg xmlns="http://www.w3.org/2000/svg" xml:space="preserve" width="829" height="621" viewBox="0 0 829 621"><path d="m161.352 371.653-1.148.483-1.118-6.818-19.593-130.15-18.476-123.331.96-1.794.96-1.793 304.574-.75 305.072-.25-9.793 4.768L437.5 243.73z" style="fill:#ec1b23"/><path d="m170.25 586.895-13.692-2.025-12.26-2.238-29.236-239.603-28.919-239.286-.821-.79-12.654-5.51-11.833-4.717.626-6.113 1.184-11.257.559-5.143 11.148-5.142 11.148-5.14 11.187 4.127 11.187 4.128 1.176 5.157 1.68 12.72.505 7.561-3.034 2.553-3.034 2.553 33.416 243.878L172 586.743z" style="fill:#000"/></svg>