<svg xmlns="http://www.w3.org/2000/svg" xml:space="preserve" id="layer" x="0" y="0" viewBox="-153 -46 652 652"><style>.st1{fill:#111}</style><path d="M-81 25h500v500H-81z" style="fill:#ff4655"/><path d="M269 225.5v-77.8c0-1.2-1.5-1.7-2.3-.8l-85 106.2c-.7.8-.1 2.1 1 2.1h61.4c1.7 0 3.2-.8 4.2-2.1l19.4-24.2c.8-.9 1.3-2.1 1.3-3.4M70.2 229l63.8 79.8c1 1.3 2.6 2 4.3 2h61.4c1.1 0 1.7-1.2 1-2L71.2 147c-.8-.9-2.3-.4-2.3.8v77.8c.1 1.2.5 2.4 1.3 3.4M325.4 357.5h14.3v43.8c0 .6.5 1 1 1h8.2c.6 0 1-.5 1-1v-43.8h18c.5 0 .8-.6.5-1l-6.2-7.7c-.5-.6-1.3-1-2.1-1h-34.8c-.6 0-1 .5-1 1v7.7c.1.5.5 1 1.1 1m-345.7 43.9 42-52.6c.3-.4 0-1-.5-1H10.8c-.8 0-1.6.4-2.1 1l-29.8 37.3v-37.3c0-.6-.5-1-1-1h-8.2c-.6 0-1 .5-1 1v52.6c0 .6.5 1 1 1h8c.7 0 1.5-.4 2-1m29.7 0 14.4-18.1 14.5 18.1c.5.6 1.3 1 2.1 1h8c.6 0 1-.5 1-1v-52.6c0-.6-.5-1-1-1h-6.7c-1.6 0-3.2.7-4.2 2l-41.2 51.6c-.3.4 0 1 .5 1H7.2c.9 0 1.6-.4 2.2-1M39.2 363v24.2l-9.7-12.1zm234.5 38.4-42-52.6c-.5-.6-1.3-1-2.1-1h-8c-.6 0-1 .5-1 1v52.6c0 .6.5 1 1 1h8c.8 0 1.6-.4 2.1-1l14.5-18.1 14.4 18.1c.5.6 1.3 1 2.1 1h10.5c.6 0 .9-.6.5-1m-33.2-26.3-9.7 12.1V363zm-115.6-28.7c-15.8 0-28.7 12.8-28.7 28.7 0 15.8 12.8 28.7 28.7 28.7 15.8 0 28.7-12.8 28.7-28.7s-12.9-28.7-28.7-28.7m0 47.6c-10.2 0-18.4-8.5-18.4-18.9 0-10.5 8.2-18.9 18.4-18.9s18.4 8.5 18.4 18.9-8.2 18.9-18.4 18.9M307 348.8v37.3l-29.8-37.3c-.5-.6-1.3-1-2.1-1h-8c-.6 0-1 .5-1 1v25.3c0 .6.2 1.2.6 1.7l8.5 10.7c.4.5 1.1.2 1.1-.4v-22l29.8 37.3c.5.6 1.3 1 2.1 1h8c.6 0 1-.5 1-1v-52.6c0-.6-.5-1-1-1H308c-.5 0-1 .4-1 1m-100.2 11.4v-11.4c0-.6-.5-1-1-1h-42c-.6 0-1 .5-1 1v52.6c0 .6.5 1 1 1h8.2c.6 0 1-.5 1-1v-43.8h23.5l-15.9 19.9c-.3.4-.3.9 0 1.3l18.1 22.7c.5.6 1.3 1 2.1 1h10.5c.5 0 .8-.6.5-1L193.3 378l12.9-16.2c.4-.4.6-1 .6-1.6m-144 42.2h24.3c.8 0 1.6-.4 2.1-1l6.1-7.7c.3-.4 0-1-.5-1H72v-43.8c0-.6-.5-1-1-1h-8.2c-.6 0-1 .5-1 1v52.6c0 .4.4.9 1 .9" class="st1"/></svg>